<mxfile host="app.diagrams.net" modified="2023-08-08T03:13:32.962Z" agent="Mozilla/5.0 (Windows NT 10.0; Win64; x64; rv:109.0) Gecko/20100101 Firefox/116.0" version="21.6.2" etag="9Eyyux0CKSZWuoFJO0Z_" type="github">
  <diagram name="第 1 页" id="BiQFkQFe3w6_JeSzJWnP">
    <mxGraphModel>
      <root>
        <mxCell id="0" />
        <mxCell id="1" parent="0" />
      </root>
    </mxGraphModel>
  </diagram>
</mxfile>
